:FULLY-SPECIFIED
:FORCE-ALL-JOINTS-BE-3DOF
:DEGREES
985
root 1.3648 15.3447 32.7497 5.98937 -3.0551 364.453
lfemur 5.2015 0.628156 2.87087
ltibia 5.31595 0 0
lfoot -31.3416 -13.4161 0
ltoes -31.5456 0 0
rfemur -30.2296 -11.5334 -8.19063
rtibia 48.1019 0 0
rfoot -17.4322 0.840508 0
rtoes -43.1343 0 0
lowerback -2.9814 -0.666614 -0.492653
upperback -1.16384 -0.840604 -6.83646
thorax 0.368367 -0.440959 -6.86739
lowerneck -7.1487 0.607412 4.25087
upperneck 2.13973 0.263656 3.82677
head 1.89211 0.273745 0.493503
lclavicle 1.57743e-15 -3.16649e-14 0
lhumerus -58.7391 -44.5713 112.691
lradius 55.6394 0 0
lwrist 25.6856 0 0
lhand 40.2924 24.5569 0
lfingers 7.12502 0 0
lthumb 62.6213 35.132 0
rclavicle 1.57743e-15 -3.16649e-14 0
rhumerus -1.89182 -2.86683 -4.96516
rradius 37.4015 0 0
rwrist -14.717 0 0
rhand -21.1445 -39.0436 0
rfingers 7.12502 0 0
rthumb 5.23335 -788.87 0
986
root 1.36386 15.3429 32.749 5.98017 -3.06048 364.44
lfemur 5.22354 0.629915 2.89223
ltibia 5.30026 0 0
lfoot -31.3521 -13.3859 0
ltoes -31.5727 0 0
rfemur -30.231 -11.5662 -8.17313
rtibia 48.1146 0 0
rfoot -17.4755 0.88056 0
rtoes -43.114 0 0
lowerback -2.97286 -0.660436 -0.49345
upperback -1.15744 -0.83232 -6.82738
thorax 0.371234 -0.43662 -6.85689
lowerneck -7.15304 0.60769 4.27104
upperneck 2.14016 0.261817 3.82773
head 1.89307 0.273112 0.49034
lclavicle 1.57067e-15 -3.1005e-14 0
lhumerus -58.7347 -44.5918 112.718
lradius 55.6396 0 0
lwrist 25.6845 0 0
lhand 40.2667 24.5651 0
lfingers 7.12502 0 0
lthumb 62.5999 35.1671 0
rclavicle 1.57067e-15 -3.1005e-14 0
rhumerus -1.85434 -3.06252 -4.91154
rradius 37.3044 0 0
rwrist -14.6603 0 0
rhand -21.2375 -39.0647 0
rfingers 7.12502 0 0
rthumb 5.14347 -788.892 0
987
root 1.36291 15.3412 32.7484 5.97097 -3.06587 364.428
lfemur 5.24558 0.631673 2.91359
ltibia 5.28457 0 0
lfoot -31.3626 -13.3558 0
ltoes -31.5998 0 0
rfemur -30.2325 -11.599 -8.15563
rtibia 48.1273 0 0
rfoot -17.5187 0.920611 0
rtoes -43.0936 0 0
lowerback -2.96432 -0.654258 -0.494248
upperback -1.15103 -0.824036 -6.8183
thorax 0.3741 -0.432282 -6.84639
lowerneck -7.15738 0.607968 4.2912
upperneck 2.14059 0.259977 3.82868
head 1.89403 0.272478 0.487176
lclavicle 1.56391e-15 -3.03451e-14 0
lhumerus -58.7304 -44.6124 112.744
lradius 55.6398 0 0
lwrist 25.6835 0 0
lhand 40.2409 24.5732 0
lfingers 7.12502 0 0
lthumb 62.5785 35.2021 0
rclavicle 1.56391e-15 -3.03451e-14 0
rhumerus -1.81686 -3.25822 -4.85792
rradius 37.2072 0 0
rwrist -14.6036 0 0
rhand -21.3306 -39.0858 0
rfingers 7.12502 0 0
rthumb 5.0536 -788.914 0
988
root 1.36196 15.3395 32.7477 5.96177 -3.07125 364.415
lfemur 5.26763 0.633432 2.93495
ltibia 5.26888 0 0
lfoot -31.3731 -13.3257 0
ltoes -31.6269 0 0
rfemur -30.2339 -11.6318 -8.13813
rtibia 48.14 0 0
rfoot -17.5619 0.960663 0
rtoes -43.0733 0 0
lowerback -2.95579 -0.648081 -0.495045
upperback -1.14462 -0.815751 -6.80922
thorax 0.376967 -0.427943 -6.83589
lowerneck -7.16172 0.608245 4.31136
upperneck 2.14102 0.258138 3.82963
head 1.89499 0.271844 0.484013
lclavicle 1.55714e-15 -2.96852e-14 0
lhumerus -58.7261 -44.6329 112.771
lradius 55.64 0 0
lwrist 25.6824 0 0
lhand 40.2152 24.5814 0
lfingers 7.12502 0 0
lthumb 62.557 35.2371 0
rclavicle 1.55714e-15 -2.96852e-14 0
rhumerus -1.77938 -3.45391 -4.80429
rradius 37.11 0 0
rwrist -14.5469 0 0
rhand -21.4237 -39.1069 0
rfingers 7.12502 0 0
rthumb 4.96372 -788.937 0
989
root 1.36101 15.3378 32.747 5.95257 -3.07663 364.402
lfemur 5.28967 0.63519 2.9563
ltibia 5.25319 0 0
lfoot -31.3836 -13.2956 0
ltoes -31.654 0 0
rfemur -30.2353 -11.6646 -8.12064
rtibia 48.1527 0 0
rfoot -17.6051 1.00072 0
rtoes -43.053 0 0
lowerback -2.94725 -0.641903 -0.495842
upperback -1.13821 -0.807467 -6.80014
thorax 0.379833 -0.423604 -6.82539
lowerneck -7.16606 0.608523 4.33153
upperneck 2.14145 0.256298 3.83059
head 1.89595 0.271211 0.480849
lclavicle 1.55038e-15 -2.90253e-14 0
lhumerus -58.7217 -44.6534 112.797
lradius 55.6403 0 0
lwrist 25.6813 0 0
lhand 40.1895 24.5895 0
lfingers 7.12502 0 0
lthumb 62.5356 35.2722 0
rclavicle 1.55038e-15 -2.90253e-14 0
rhumerus -1.7419 -3.64961 -4.75067
rradius 37.0128 0 0
rwrist -14.4902 0 0
rhand -21.5168 -39.128 0
rfingers 7.12502 0 0
rthumb 4.87385 -788.959 0
990
root 1.36006 15.3361 32.7464 5.94337 -3.08202 364.39
lfemur 5.31171 0.636949 2.97766
ltibia 5.2375 0 0
lfoot -31.3941 -13.2655 0
ltoes -31.6811 0 0
rfemur -30.2368 -11.6974 -8.10314
rtibia 48.1654 0 0
rfoot -17.6483 1.04077 0
rtoes -43.0326 0 0
lowerback -2.93871 -0.635725 -0.49664
upperback -1.13181 -0.799183 -6.79106
thorax 0.3827 -0.419266 -6.81489
lowerneck -7.1704 0.608801 4.35169
upperneck 2.14187 0.254458 3.83154
head 1.89691 0.270577 0.477686
lclavicle 1.54362e-15 -2.83653e-14 0
lhumerus -58.7174 -44.674 112.824
lradius 55.6405 0 0
lwrist 25.6803 0 0
lhand 40.1637 24.5977 0
lfingers 7.12502 0 0
lthumb 62.5142 35.3072 0
rclavicle 1.54362e-15 -2.83653e-14 0
rhumerus -1.70442 -3.8453 -4.69704
rradius 36.9156 0 0
rwrist -14.4335 0 0
rhand -21.6099 -39.1491 0
rfingers 7.12502 0 0
rthumb 4.78397 -788.981 0
991
root 1.35912 15.3343 32.7457 5.93417 -3.0874 364.377
lfemur 5.33375 0.638707 2.99902
ltibia 5.22181 0 0
lfoot -31.4046 -13.2353 0
ltoes -31.7082 0 0
rfemur -30.2382 -11.7302 -8.08564
rtibia 48.1781 0 0
rfoot -17.6916 1.08082 0
rtoes -43.0123 0 0
lowerback -2.93018 -0.629548 -0.497437
upperback -1.1254 -0.790899 -6.78198
thorax 0.385566 -0.414927 -6.80438
lowerneck -7.17474 0.609078 4.37185
upperneck 2.1423 0.252619 3.83249
head 1.89787 0.269943 0.474522
lclavicle 1.53686e-15 -2.77054e-14 0
lhumerus -58.7131 -44.6945 112.85
lradius 55.6407 0 0
lwrist 25.6792 0 0
lhand 40.138 24.6058 0
lfingers 7.12502 0 0
lthumb 62.4928 35.3422 0
rclavicle 1.53686e-15 -2.77054e-14 0
rhumerus -1.66694 -4.041 -4.64342
rradius 36.8185 0 0
rwrist -14.3768 0 0
rhand -21.7029 -39.1702 0
rfingers 7.12502 0 0
rthumb 4.6941 -789.004 0
